{"title":"Secretariat 2010 PPVRiP READNFO XViD-iMAGiNE","uid":6066095,"size":1381662468,"categoryP":"video","categoryS":"movies","magnet":"?xt=urn:btih:06f0f7bc617b6ad4c09897a6099bec3f85e0cebb&amp;dn=Secretariat+2010+PPVRiP+READNFO+XViD-iMAGiNE&amp;tr=udp%3A%2F%2Ftracker.openbittorrent.com%3A80&amp;tr=udp%3A%2F%2Fopen.demonii.com%3A1337&amp;tr=udp%3A%2F%2Ftracker.coppersurfer.tk%3A6969&amp;tr=udp%3A%2F%2Fexodus.desync.com%3A6969","seeders":0,"leechers":1,"uploader":"DibyaTPB","files":95,"time":1293360081,"description":"\tSecretariat 2010 PPVRiP READNFO XViD-iMAGiNE\n\n\n\nPlot\nGenre : Drama / Family / History\n\nPlot : Housewife and mother Penny Chenery agrees to take over her ailing father's Virginia-based Meadow Stables, despite her lack of horse-racing knowledge. Against all odds, Chenery -- with the help of veteran trainer Lucien Laurin -- manages to navigate the male-dominated business, ultimately fostering the first Triple Crown winner in twenty-five years.\n\nInfomation\n*********** ****    ****      ***      ******** *********** ****    *** **********\n\n         *+*     +*+*+* *+*+*+   *+* *+*   *+*    *+*    *+*     *+*+*   *+* *+*        \n\n         +*+     +*+ +*+*+ +*+  +*+   +*+  +*+           +*+     *+*+*+  +*+ +*+        \n\n         +$+     +$+  +*+  +$+ +$++*++$++* *$*           +$+     +$+ +*+ +$+ +$++*++$  \n\n         +$+     +$+       +$+ +$+     +$+ +$+   +$+$    +$+     +$+  +$+$+$ +$+        \n\n         $+$     $+$       $+$ $+$     $+$ $+$    $+$    $+$     $+$   $+$+$ $+$        \n\n     $$$$$$$$$$$ $$$       $$$ $$$     $$$  $$$$$$$$ $$$$$$$$$$$ $$$    $$$$ $$$$$$$$$$    \n\n                                             \n\n\n\n\n\n\n\n                  Another Fine Release Brought to you from - IMAGiNE\n\nRipper ...........:IMAGiNE                                 IMDB Rating.......:7.2/10                          \nVideo Codec.......:XVID                                      Release Date......:08/12/10\nAudio Codec.......:AC-3                                      Theatre Date......:02/10/10\nAudio Bitrate.....:128                                     Runtime...........:1h 59mn\nSubtitles.........:NIL                                     Language..........:ENGLISH\nResolution........:704 x 400                               IMDb URL..........:http://www.imdb.com/title/tt1028576/\nDETAILS:\n\nVideo\nID                             : 0\nFormat                         : MPEG-4 Visual\nFormat profile                 : Advanced Simple@L5\nFormat settings, BVOP            : Yes\nFormat settings, QPel            : No\nFormat settings, GMC           : No warppoints\nFormat settings, Matrix          : Default (H.263)\nMuxing mode                      : Packed bitstream\nCodec ID                       : XVID\nCodec ID/Hint                    : XviD\nDuration                       : 1h 59mn\nBit rate                       : 1 385 Kbps\nWidth                            : 704 pixels\nHeight                         : 400 pixels\nDisplay aspect ratio           : 16:9\nFrame rate                     : 29.970 fps\nColor space                      : YUV\nChroma subsampling             : 4:2:0\nBit depth                        : 8 bits\nScan type                        : Progressive\nBits/(Pixel*Frame)             : 0.164\nStream size                      : 1.16 GiB (91%)\nWriting library                  : XviD 1.1.2 (UTC 2006-11-01)\n\nAudio\nID                             : 1\nFormat                         : AC-3\nFormat/Info                      : Audio Coding 3\nMode extension                 : CM (complete main)\nCodec ID                       : 2000\nDuration                       : 1h 59mn\nBit rate mode                    : Constant\nBit rate                       : 128 Kbps\nChannel(s)                     : 2 channels\nChannel positions                : Front: L R\nSampling rate                    : 48.0 KHz\nBit depth                        : 16 bits\nStream size                      : 109 MiB (8%)\nAlignment                        : Aligned on interleaves\nInterleave, duration           : 33 ms (1.00 video frame)\nInterleave, preload duration   : 512 ms\n\n\nSOURCES:\n\nVIDEO:Vobs Thanks Lkrg\nAUDIO:Vobs Thanks Lkrg\n\nNOTES:\n\nIMAGiNE bringing you another release.......... Secretariat\n\nHere we are with our encode of this one... We we're sent the original vob's from our friend's\nat LKRG so thanks bro... First off we want to clarify what type of source this is, this is a PPVRiP\nBUT it was recorded with an HD cam sitting in front of the tv... As you can tell by the vertical\nwavy lines and the blurred 2 digit channel at the bottom right, also the source files had to be\ncropped so you could tell it was cammed.\n\nWe did our normal filtering to the video of changing the brightness,contrast,colour, resize etc...\nThe audio is AC3 so it was just a matter of muxing it to the video.\nWe do realize the retail release of this is right around the corner, but thought to give this to\neveryone just incase they want it...\n\nEnjoy folks.\n\nGREETS:\n\n\n\nFLAWL3SS,ViSiON,FUSiON,Rx,SecretMyth,BirdFlu,ELEKTRI4KA and Autotron\n\nAnd to all the other p2p grps past and present\n\n\n\nLooking for these,syncers,cammers,silver supplier.....Have anything to offer????......\n\nContact us &lt;a class=&quot;__cf_email__&quot; href=&quot;/cdn-cgi/l/email-protection&quot; data-cfemail=&quot;20494d4147494e4547524f555060485553484d41494c0e434f4d&quot;&gt;[email&amp;#160;protected]&lt;/a&gt;&lt;script cf-hash='f9e31' type=&quot;text/javascript&quot;&gt;\n/* &lt;![CDATA[ */!function(){try{var t=&quot;currentScript&quot;in document?document.currentScript:function(){for(var t=document.getElementsByTagName(&quot;script&quot;),e=t.length;e--;)if(t[e].getAttribute(&quot;cf-hash&quot;))return t[e]}();if(t&amp;&amp;t.previousSibling){var e,r,n,i,c=t.previousSibling,a=c.getAttribute(&quot;data-cfemail&quot;);if(a){for(e=&quot;&quot;,r=parseInt(a.substr(0,2),16),n=2;a.length-n;n+=2)i=parseInt(a.substr(n,2),16)^r,e+=String.fromCharCode(i);e=document.createTextNode(e),c.parentNode.replaceChild(e,c)}}}catch(u){}}();/* ]]&gt; */&lt;/script&gt;\n &lt;a href=&quot;\nhttp://www.imdb.com/title/tt1028576/&quot; rel=&quot;nofollow&quot; target=&quot;_NEW&quot;&gt;\nhttp://www.imdb.com/title/tt1028576/&lt;/a&gt;\n\n\nSCREENS\n=======\n &lt;a href=&quot;\nhttp://img196.imageshack.us/i/vlcsnap3219046.png&quot; rel=&quot;nofollow&quot; target=&quot;_NEW&quot;&gt;\nhttp://img196.imageshack.us/i/vlcsnap3219046.png&lt;/a&gt;\n &lt;a href=&quot;\nhttp://img25.imageshack.us/img25/679/vlcsnap3219963.png&quot; rel=&quot;nofollow&quot; target=&quot;_NEW&quot;&gt;\nhttp://img25.imageshack.us/img25/679/vlcsnap3219963.png&lt;/a&gt;\n &lt;a href=&quot;\nhttp://img338.imageshack.us/img338/1893/vlcsnap3219607.png&quot; rel=&quot;nofollow&quot; target=&quot;_NEW&quot;&gt;\nhttp://img338.imageshack.us/img338/1893/vlcsnap3219607.png&lt;/a&gt;\n &lt;a href=&quot;\nhttp://img651.imageshack.us/img651/6915/vlcsnap3219469.png&quot; rel=&quot;nofollow&quot; target=&quot;_NEW&quot;&gt;\nhttp://img651.imageshack.us/img651/6915/vlcsnap3219469.png&lt;/a&gt;","torrent":{"xt":"urn:btih:06f0f7bc617b6ad4c09897a6099bec3f85e0cebb","amp;dn":"Secretariat+2010+PPVRiP+READNFO+XViD-iMAGiNE","amp;tr":["udp%3A%2F%2Ftracker.openbittorrent.com%3A80","udp%3A%2F%2Fopen.demonii.com%3A1337","udp%3A%2F%2Ftracker.coppersurfer.tk%3A6969","udp%3A%2F%2Fexodus.desync.com%3A6969"],"infoHash":"06f0f7bc617b6ad4c09897a6099bec3f85e0cebb","infoHashBuffer":{"type":"Buffer","data":[6,240,247,188,97,123,106,212,192,152,151,166,9,155,236,63,133,224,206,187]},"announce":[],"urlList":[]}}